HIERARCHY
ROOT hip
{
	OFFSET 0.000000 0.000000 0.000000 
	CHANNELS 6 Xposition Yposition Zposition Xrotation Zrotation Yrotation
	JOINT abdomen
	{
		OFFSET 0.000000 3.402643 0.000000 
		CHANNELS 3 Xrotation Zrotation Yrotation
		JOINT chest
		{
			OFFSET 0.000000 8.438565 -0.680529 
			CHANNELS 3 Xrotation Zrotation Yrotation
			JOINT neck
			{
				OFFSET 0.000000 10.207942 -0.272212 
				CHANNELS 3 Xrotation Zrotation Yrotation
				JOINT head
				{
					OFFSET 0.000000 3.130431 0.000000 
					CHANNELS 3 Xrotation Zrotation Yrotation
					End Site
					{
						OFFSET 0.000000 3.130435 0.000000 
					}
				}
			}
			JOINT lCollar
			{
				OFFSET 3.470700 6.669187 -0.816635 
				CHANNELS 3 Yrotation Zrotation Xrotation
				JOINT lShldr
				{
					OFFSET 3.198488 0.000000 0.000000 
					CHANNELS 3 Zrotation Yrotation Xrotation
					JOINT lForeArm
					{
						OFFSET 10.139888 0.000000 0.000000 
						CHANNELS 3 Yrotation Zrotation Xrotation
						JOINT lHand
						{
							OFFSET 8.370511 0.000000 0.000000 
							CHANNELS 3 Zrotation Yrotation Xrotation
							End Site
							{
								OFFSET 4.083176 0.000000 0.000000 
							}
						}
					}
				}
			}
			JOINT rCollar
			{
				OFFSET -3.470700 6.669187 -0.816635 
				CHANNELS 3 Yrotation Zrotation Xrotation
				JOINT rShldr
				{
					OFFSET -3.198488 0.000000 0.000000 
					CHANNELS 3 Zrotation Yrotation Xrotation
					JOINT rForeArm
					{
						OFFSET -10.139888 0.000000 0.000000 
						CHANNELS 3 Yrotation Zrotation Xrotation
						JOINT rHand
						{
							OFFSET -8.370511 0.000000 0.000000 
							CHANNELS 3 Zrotation Yrotation Xrotation
							End Site
							{
								OFFSET -4.083176 0.000000 0.000000 
							}
						}
					}
				}
			}
		}
	}
	JOINT lThigh
	{
		OFFSET 5.308129 -1.633274 1.361059 
		CHANNELS 3 Xrotation Zrotation Yrotation
		JOINT lShin
		{
			OFFSET -2.041588 -20.007561 0.000000 
			CHANNELS 3 Xrotation Zrotation Yrotation
			JOINT lFoot
			{
				OFFSET 0.000000 -19.190928 -1.224953 
				CHANNELS 3 Xrotation Yrotation Zrotation
				End Site
				{
					OFFSET 0.000000 -2.449906 4.627600 
				}
			}
		}
	}
	JOINT rThigh
	{
		OFFSET -5.308129 -1.633274 1.361059 
		CHANNELS 3 Xrotation Zrotation Yrotation
		JOINT rShin
		{
			OFFSET 2.041588 -20.007561 0.000000 
			CHANNELS 3 Xrotation Zrotation Yrotation
			JOINT rFoot
			{
				OFFSET 0.000000 -19.190928 -1.224953 
				CHANNELS 3 Xrotation Yrotation Zrotation
				End Site
				{
					OFFSET 0.000000 -2.449906 4.627600 
				}
			}
		}
	}
}
MOTION
Frames: 14
Frame Time: 0.016667
5.407727 24.350403 23.746971 16.002651 1.728373 164.123550 50.815231 -9.147375 13.952562 -4.715208 -0.751739 2.421886 -14.212835 -3.925141 0.495541 9.794970 5.277960 -70.072823 2.145689 -14.104428 -0.740819 -53.932178 19.987907 -23.999107 -16.215673 -5.000000 24.764324 -24.085554 2.064642 36.302551 12.314729 6.651695 -0.353699 53.949978 -3.456686 -6.994005 14.984259 5.000000 36.186066 11.541394 -6.229643 25.787134 -7.459537 37.949841 4.781570 135.868668 1.994839 -1.908910 -53.192722 16.319555 -3.804463 -63.295139 -5.283329 2.785150 144.985794 -7.448887 4.276571 -54.817875 -15.024659 12.029201 
5.327646 24.590269 23.580372 16.309923 1.953901 164.131439 50.403118 -8.815571 14.320990 -4.952607 -0.917729 2.314598 -14.213345 -3.983073 0.504303 10.136291 5.411996 -69.966415 2.130353 -14.514002 -0.761944 -53.646957 20.225161 -24.002413 -15.720215 -5.000000 26.312000 -23.939844 1.563407 36.406658 12.093272 7.139354 -0.378968 53.687630 -3.722741 -6.915725 14.872452 5.000000 36.736992 11.708392 -5.998634 25.814672 -6.386453 37.591732 5.450218 135.164581 2.073003 -2.043763 -53.276196 16.411840 -3.724714 -62.237427 -5.566314 2.763315 144.988678 -7.554089 4.395122 -54.920322 -15.028158 11.827503 
5.263206 24.817410 23.416557 16.557745 2.217023 164.138397 49.932861 -8.491314 14.687694 -5.218899 -1.064192 2.226706 -14.184218 -4.002383 0.507223 10.472885 5.578270 -69.877831 2.105490 -14.894320 -0.784035 -53.327938 20.498367 -23.973488 -15.266677 -5.000000 27.689564 -23.767588 1.109962 36.517815 11.882154 7.675771 -0.406731 53.357311 -4.017766 -6.826531 14.797751 5.000000 37.120667 11.837336 -5.823348 25.830481 -5.381272 37.311348 5.978166 134.475189 2.099124 -2.131079 -53.342659 16.476870 -3.728216 -61.201031 -5.751872 2.663682 144.987503 -7.602643 4.524813 -55.137211 -15.057610 11.501066 
5.261322 24.993647 23.263872 16.560041 2.620951 164.133469 49.255951 -8.118334 14.979787 -5.542655 -1.122767 2.197403 -14.055516 -3.878327 0.478607 10.766371 5.867127 -69.916252 2.061796 -15.216125 -0.800629 -52.888035 20.906729 -23.793684 -15.008446 -5.000000 28.334326 -23.437172 0.864315 36.695503 11.741190 8.407221 -0.445953 52.792950 -4.401552 -6.669211 14.842018 5.000000 36.900143 11.815029 -5.846770 25.836292 -4.697352 37.415298 6.069129 133.929398 1.962492 -2.022418 -53.332096 16.384785 -4.195081 -60.190269 -5.497757 2.232710 144.988724 -7.485745 4.541226 -55.756626 -15.135989 10.706262 
5.259439 25.169882 23.111183 16.562780 3.025015 164.137970 48.578442 -7.755926 15.273380 -5.875776 -1.171583 2.148569 -13.917768 -3.752806 0.459620 11.050683 6.158702 -69.949348 2.017991 -15.537929 -0.819814 -52.442249 21.307655 -23.602179 -14.749993 -5.000000 28.978321 -23.116491 0.614848 36.853539 11.600732 9.138667 -0.483798 52.236950 -4.787470 -6.514312 14.880198 5.000000 36.670181 11.787564 -5.880741 25.848410 -3.994385 37.537876 6.188014 133.372696 1.845288 -1.918971 -53.301151 16.273886 -4.658850 -59.191040 -5.234445 1.811404 144.989273 -7.361586 4.571416 -56.354984 -15.184605 9.912866 
5.292592 25.271267 22.963274 16.668779 3.266386 163.957687 48.056133 -7.716661 15.290451 -6.284406 -1.103240 2.109514 -13.681573 -3.599782 0.425999 11.446064 6.302114 -69.796852 2.002845 -15.713798 -0.838264 -51.969135 21.771318 -23.293911 -14.617235 -5.000000 29.297607 -22.836411 0.651549 37.070137 11.712501 9.813537 -0.510779 51.713985 -5.252540 -6.399059 14.918024 5.000000 36.440239 11.753044 -6.086599 25.765423 -3.174551 37.632172 6.299878 132.954651 1.591413 -1.732998 -53.514370 16.144203 -5.099131 -58.364170 -4.765678 1.594252 144.943787 -7.204276 4.476077 -57.108746 -15.257931 8.888329 
5.334502 25.353939 22.816565 16.782406 3.469267 163.748978 47.577038 -7.773737 15.256430 -6.701929 -0.995846 2.080224 -13.415619 -3.448219 0.383373 11.847230 6.407747 -69.603073 2.010514 -15.850322 -0.847963 -51.491177 22.230970 -22.954245 -14.525866 -5.000000 29.525524 -22.564636 0.750455 37.302361 11.884649 10.466933 -0.544575 51.209785 -5.739715 -6.294415 14.947403 5.000000 36.212288 11.726383 -6.322682 25.655579 -2.285443 37.722694 6.462178 132.539810 1.328051 -1.501929 -53.789463 15.967502 -5.538157 -57.563736 -4.257561 1.442012 144.848984 -7.026283 4.368258 -57.881660 -15.280003 7.814332 
5.380195 25.401594 22.686386 16.947519 3.645218 163.628418 47.222328 -7.812431 15.201757 -7.031532 -0.907987 2.011871 -13.297049 -3.324159 0.354757 12.103469 6.479447 -69.450569 2.031922 -15.908489 -0.838922 -51.042828 22.489338 -22.538614 -14.465502 -5.000000 29.627626 -22.329464 0.855595 37.611225 11.987455 10.983799 -0.573120 50.816788 -6.094002 -6.203233 14.964548 5.000000 36.069500 11.605090 -6.606179 25.315071 -1.602371 37.844757 6.430223 132.298523 1.093584 -1.310106 -53.735844 15.946976 -5.985604 -56.885857 -3.828082 1.338698 144.833435 -6.875008 4.300125 -58.623596 -15.358196 6.818048 
5.431557 25.396736 22.581024 17.157774 3.805451 163.673965 47.077858 -7.807045 15.114748 -7.224698 -0.849426 1.914076 -13.384956 -3.235796 0.351258 12.143339 6.503513 -69.345039 2.072027 -15.840228 -0.835405 -50.648003 22.438843 -22.014402 -14.460200 -5.000000 29.516870 -22.129845 0.992446 38.059731 12.010119 11.286113 -0.588756 50.584148 -6.262057 -6.136646 14.974877 5.000000 36.058361 11.350880 -6.946176 24.635437 -1.191861 38.054558 6.177785 132.214691 0.966920 -1.174335 -53.235912 16.009222 -6.553184 -56.355858 -3.496108 1.240147 144.899826 -6.761379 4.206938 -59.354595 -15.529852 5.927618 
5.482916 25.391874 22.475662 17.377373 3.965562 163.710297 46.918808 -7.821852 15.027823 -7.408217 -0.790861 1.816433 -13.472855 -3.147435 0.347760 12.173478 6.527492 -69.239494 2.111980 -15.781717 -0.832389 -50.251499 22.377213 -21.480227 -14.454784 -5.000000 29.404358 -21.942907 1.125029 38.512604 12.025066 11.586393 -0.615694 50.360386 -6.414899 -6.068624 14.974877 5.000000 36.058361 11.104016 -7.297628 23.935724 -0.781460 38.260521 5.916466 132.150848 0.830012 -1.050837 -52.773533 16.098942 -7.080850 -55.816032 -3.144201 1.137067 144.985062 -6.616139 4.103250 -60.101143 -15.765059 4.992280 
5.523738 25.351070 22.402462 17.643213 3.981980 164.062286 47.027763 -7.761222 14.869205 -7.435967 -0.810424 1.611367 -13.688168 -3.136317 0.355941 12.004439 6.560812 -69.228699 2.051375 -15.733310 -0.839269 -49.805859 22.034410 -20.883923 -14.578670 -5.000000 29.134899 -21.775921 1.048967 38.811760 11.978076 11.752187 -0.624277 50.183075 -6.392208 -6.045277 14.954884 5.000000 36.145485 11.378531 -7.259478 23.965330 -0.762656 38.360371 5.336657 132.188156 0.849838 -1.062575 -52.158287 15.919176 -7.653688 -55.326065 -3.134862 0.998164 144.983887 -6.501378 3.995637 -59.594002 -15.316431 4.428154 
5.564558 25.310266 22.329264 17.908531 3.998092 164.404556 47.134438 -7.708167 14.705097 -7.463769 -0.839749 1.416067 -13.903481 -3.125200 0.364123 11.816453 6.597634 -69.219070 1.993527 -15.684545 -0.836757 -49.363808 21.685358 -20.288935 -14.704316 -5.000000 28.854586 -21.612043 0.984577 39.107700 11.931221 11.927732 -0.633358 50.005096 -6.363163 -6.014667 14.932622 5.000000 36.241798 11.663212 -7.223741 23.984993 -0.743278 38.460426 4.746636 132.235321 0.879219 -1.055442 -51.551994 15.746642 -8.213339 -54.846237 -3.115438 0.854138 144.981583 -6.364371 3.906439 -59.071430 -14.953959 3.841023 
5.619667 25.262276 22.271477 18.066551 3.958664 164.807281 47.166920 -7.653411 14.421198 -7.442393 -0.830009 1.240298 -14.069464 -3.036838 0.360627 11.633432 6.594420 -69.167030 1.946181 -15.587019 -0.831731 -48.964409 21.274240 -19.687969 -14.878652 -5.000000 28.539383 -21.498875 0.916373 39.493259 11.884624 12.122780 -0.643442 49.832172 -6.260243 -5.943669 14.877134 5.000000 36.383011 11.966173 -7.153810 24.294127 -0.928084 38.564682 4.097544 132.273285 0.983360 -1.149195 -51.027916 15.581760 -8.664410 -54.435364 -3.085924 0.577910 144.989624 -6.152391 3.741818 -59.913578 -14.776752 2.737605 
5.684303 25.209497 22.223972 18.159149 3.881965 165.258713 47.147957 -7.595764 14.065153 -7.391654 -0.810499 1.083922 -14.205843 -2.900198 0.349833 11.464603 6.555612 -69.094513 1.889645 -15.450485 -0.824691 -48.577599 20.832624 -19.064892 -15.094968 -5.000000 28.181549 -21.406111 0.863569 39.947746 11.847828 12.317825 -0.655601 49.664658 -6.104327 -5.828760 14.788506 5.000000 36.566917 12.292886 -7.077229 24.767847 -1.191546 38.685192 3.426504 132.337540 1.123215 -1.262177 -50.591152 15.319283 -9.149679 -54.105038 -3.075762 0.219876 144.987930 -5.933129 3.603578 -61.638412 -14.559656 1.304590 
